                    <svg fill="#C8D1D9" version="1.0" xmlns="http://www.w3.org/2000/svg"
                        width="128px" height="128px" viewBox="0 0 500.000000 500.000000">
                        <g transform="translate(0.000000,505.000000) scale(0.100000,-0.100000)"
                            stroke="none">
                            <path d="M1183 5020 c-564 -61 -1014 -473 -1140 -1042 -17 -78 -18 -165 -18
-1448 0 -1514 -4 -1425 66 -1634 153 -460 567 -804 1047 -870 169 -24 2622
-24 2779 0 206 30 370 93 546 210 321 214 527 560 567 951 8 75 10 505 7 1398
-3 1154 -5 1299 -20 1372 -56 273 -178 505 -363 689 -179 178 -399 298 -650
355 l-99 23 -1325 2 c-729 1 -1358 -2 -1397 -6z m2780 -543 c110 -38 171 -71
254 -134 163 -123 269 -315 294 -528 7 -59 9 -528 7 -1365 -3 -1194 -5 -1279
-22 -1335 -85 -283 -293 -487 -571 -561 -67 -18 -131 -19 -1400 -19 -1501 0
-1378 -6 -1551 80 -200 100 -343 274 -406 492 l-23 78 0 1340 0 1340 23 75
c69 219 201 380 391 479 77 39 187 76 251 84 19 2 629 4 1355 3 l1320 -1 78
-28z"/>
                            <path d="M2337 3982 c-3 -4 -222 -626 -487 -1382 -265 -756 -484 -1378 -487
-1383 -2 -4 103 -7 234 -7 l238 0 359 1028 c197 565 362 1032 365 1039 3 6
168 -456 365 -1028 l359 -1039 235 0 c183 0 233 3 230 13 -3 6 -220 632 -484
1389 l-479 1378 -222 0 c-122 0 -224 -3 -226 -8z"/>
                            <path d="M2256 1948 c-27 -79 -51 -149 -53 -155 -4 -10 71 -13 356 -13 199 0
361 3 360 8 0 4 -23 72 -52 152 l-52 145 -255 3 -255 2 -49 -142z"/>
                        </g>
                    </svg>